<svg xmlns="http://www.w3.org/2000/svg" xmlns:xlink="http://www.w3.org/1999/xlink" width="403.62" height="331.657" viewBox="0 0 403.62 331.657">
  <defs>
    <linearGradient id="linear-gradient" x1="0.085" y1="0.501" x2="1.043" y2="0.501" gradientUnits="objectBoundingBox">
      <stop offset="0" stop-color="#009f8b"/>
      <stop offset="1" stop-color="#177f71"/>
    </linearGradient>
  </defs>
  <g id="forget-pass" transform="translate(-0.007)">
    <g id="obj" transform="translate(0)">
      <path id="Path_21691" data-name="Path 21691" d="M207.739,210.569a12.563,12.563,0,0,0-4.322-.729,13.018,13.018,0,0,0-12.485,9.451h0l-31.374-.1H142.152a2.682,2.682,0,0,0-2.682,2.6v4.465h0v3.906a2.239,2.239,0,0,0,2.239,2.252h.391a2.252,2.252,0,0,0,2.252-2.239v-3.906h2.838v3.906a2.239,2.239,0,0,0,2.239,2.252h.508a2.239,2.239,0,0,0,2.252-2.239v-3.906h2.851v3.788a2.317,2.317,0,0,0,1.992,2.369,2.239,2.239,0,0,0,2.487-2.226v-3.906l31.374.1a13.018,13.018,0,0,0,25.633-4.1,13.175,13.175,0,0,0-8.787-11.743Zm4.023,15.1a3.346,3.346,0,1,1-1.836-6.158,3.4,3.4,0,0,1,1.875.586h0a3.385,3.385,0,0,1,1.471,2.786A3.32,3.32,0,0,1,211.761,225.671Z" transform="translate(36.162 57.103)" fill="#e7e7e7"/>
      <path id="Path_21692" data-name="Path 21692" d="M204.092,222.168a13.018,13.018,0,0,1-23.342,8.618c4.309,2.1,9.256,3.046,13.826.508a9.191,9.191,0,0,0,4.726-5.78,3.32,3.32,0,0,0,1.51-2.786,3.385,3.385,0,0,0-1.471-2.786h0a30.463,30.463,0,0,0-4.01-9.582,13.175,13.175,0,0,1,8.761,11.808Z" transform="translate(48.622 57.26)" fill="#e2ebf7"/>
      <path id="Path_21693" data-name="Path 21693" d="M320.186,54.091a55.3,55.3,0,0,0-51.618-49.2c-1.081,0-2.174-.1-3.255-.1s-2.2,0-3.281.1a55.315,55.315,0,0,0-51.657,49.2,52.447,52.447,0,0,0-.325,5.923V136.55a3.268,3.268,0,0,0,3.268,3.281H317.231a3.268,3.268,0,0,0,3.268-3.281V60.014a52.448,52.448,0,0,0-.312-5.923ZM268.568,11.455a48.585,48.585,0,0,1,34.421,17.822c.872,1.068,1.705,2.174,2.487,3.32s1.51,2.3,2.2,3.515,1.3,2.447,1.9,3.71,1.094,2.6,1.575,3.906a47.968,47.968,0,0,1,1.679,6.119c.3,1.38.547,2.8.716,4.244H268.568Zm0,49.184h45.421V92.287H268.568ZM222.574,36.7a48.676,48.676,0,0,1,39.485-25.243V54.091H217.015A48.09,48.09,0,0,1,222.574,36.7ZM216.6,60.639h45.46V92.287H216.6Zm45.46,72.6H216.6V98.887h45.46Zm51.957,0H268.568V98.887h45.421Z" transform="translate(57.466 -4.79)" fill="#eff4f9"/>
      <rect id="Rectangle_10838" data-name="Rectangle 10838" width="45.421" height="34.356" transform="translate(326.008 94.084)" fill="#d5d5d5"/>
      <rect id="Rectangle_10839" data-name="Rectangle 10839" width="45.421" height="31.7" transform="translate(326.008 55.849)" fill="#d5d5d5"/>
      <path id="Path_21694" data-name="Path 21694" d="M300.018,52.545H255V9.91a48.728,48.728,0,0,1,45.018,42.635Z" transform="translate(71.034 -3.245)" fill="#e7e7e7"/>
      <rect id="Rectangle_10840" data-name="Rectangle 10840" width="45.408" height="34.356" transform="translate(274.064 94.084)" fill="#e7e7e7"/>
      <rect id="Rectangle_10841" data-name="Rectangle 10841" width="45.408" height="31.7" transform="translate(274.064 55.849)" fill="#d5d5d5"/>
      <path id="Path_21695" data-name="Path 21695" d="M260.444,9.91V52.545H215.4v-.169A48.7,48.7,0,0,1,260.444,9.91Z" transform="translate(59.081 -3.245)" fill="#d5d5d5"/>
      <path id="Path_21696" data-name="Path 21696" d="M222.012,46.693H215.36A48.09,48.09,0,0,1,220.971,29.3C221.1,34.69,221.4,40.626,222.012,46.693Z" transform="translate(59.069 2.608)" fill="#e7e7e7"/>
      <path id="Path_21697" data-name="Path 21697" d="M230.78,79.338h-15.7V47.69h7.707C224.245,58.9,226.692,70.225,230.78,79.338Z" transform="translate(58.985 8.159)" fill="#e7e7e7"/>
      <path id="Path_21698" data-name="Path 21698" d="M238.409,82.668c5.129,5.6,13.018,9.4,22.131,11.925v16.833H215.08V77.07h19.111a38.662,38.662,0,0,0,4.218,5.6Z" transform="translate(58.985 17.027)" fill="#d5d5d5"/>
      <path id="Path_21699" data-name="Path 21699" d="M300.4,94.682v12.355H255V91.74C270.1,94.851,287.325,95.112,300.4,94.682Z" transform="translate(71.034 21.455)" fill="#e7e7e7"/>
      <g id="Group_16963" data-name="Group 16963" transform="translate(297.224 6.665)" opacity="0.3">
        <g id="Group_16960" data-name="Group 16960" transform="translate(28.784 6.718)" opacity="0.6">
          <path id="Path_21700" data-name="Path 21700" d="M280.714,46.185,250.42,10.28V42.462l3.372,3.723Z" transform="translate(-250.42 -10.28)" fill="#d5d5d5"/>
        </g>
        <g id="Group_16961" data-name="Group 16961" opacity="0.6">
          <path id="Path_21701" data-name="Path 21701" d="M255.171,41.623V9.91a48.325,48.325,0,0,0-22.3,7.16Z" transform="translate(-232.87 -9.91)" fill="#d5d5d5"/>
        </g>
        <g id="Group_16962" data-name="Group 16962" transform="translate(38.118 49.184)" opacity="0.6">
          <path id="Path_21702" data-name="Path 21702" d="M284.083,42.9H257.59L286.4,74.6h7.277V54.278Z" transform="translate(-257.59 -42.9)" fill="#d5d5d5"/>
        </g>
      </g>
      <path id="Path_21738" data-name="Path 21738" d="M68.217,0c37.675,0,68.958,7.251,68.958,10.018s-31.283,0-68.958,0S.177,11.9.177,9.138,30.542,0,68.217,0Z" transform="translate(0 320.41)" fill="#f1f2f2"/>
      <ellipse id="Ellipse_1731" data-name="Ellipse 1731" cx="24.553" cy="3.827" rx="24.553" ry="3.827" transform="translate(322.91 323.17)" fill="#eff4f9"/>
      <path id="Path_21703" data-name="Path 21703" d="M42.861,190.4c-10.988-4.361-5.207,63.2-1.718,74.518s3.19-22.9,4.348-42.193S47.183,192.115,42.861,190.4Z" transform="translate(5.073 51.174)" fill="#eed7ba"/>
      <path id="Path_21704" data-name="Path 21704" d="M71.155,189.045c-10.883-4.257-7.642,63.426-4.53,74.674s4.465-9.347,6.2-28.641S75.438,190.659,71.155,189.045Z" transform="translate(13.27 50.768)" fill="#eed7ba"/>
      <path id="Path_21705" data-name="Path 21705" d="M68.832,237.053l-1.523,14.437-5.754-.95-1.445-15.7Z" transform="translate(18.144 70.885)" fill="#eed7ba"/>
      <path id="Path_21706" data-name="Path 21706" d="M42.7,237.181l-1.64,14.424-5.754-1L34.02,234.89Z" transform="translate(10.269 70.9)" fill="#eed7ba"/>
      <path id="Path_21707" data-name="Path 21707" d="M87.305,118.248a5.207,5.207,0,0,1-4.14-2.526C78.674,108.6,62.57,82.656,64.6,79.6c2.408-3.554,27.43,32.793,26.558,34.9C90.482,116.139,90.078,118.353,87.305,118.248Z" transform="translate(13.51 17.716)" fill="#e8ceb1"/>
      <path id="Path_21708" data-name="Path 21708" d="M66.866,84.684s-3.111-1.107-2.955-2.968-3.554-2.044-3.268-3.437,4.439-4.53,7-1.3a10.91,10.91,0,0,1,2.33,7.043Z" transform="translate(12.364 16.574)" fill="#e8ceb1"/>
      <path id="Path_21709" data-name="Path 21709" d="M55.462,153.025c-4.244.781-7.043,5.468-6.132,10.167a127.582,127.582,0,0,0,5.845,18.694c6.132,14.867,11.079,28.979,17.145,29.5s7.811-10.415,3.372-25.75c-3.984-13.813-5.611-31.83-9.985-33.132C63.494,151.815,59.2,152.348,55.462,153.025Z" transform="translate(8.902 39.7)" fill="#eed7ba"/>
      <path id="Path_21710" data-name="Path 21710" d="M46.286,151.789c-4.023-.664-8.163,2.773-9.022,7.434a132.2,132.2,0,0,0-1.484,19.254c.156,15.843-.469,30.593,4.713,33.067s10.6-7.173,12.12-22.834c1.38-14.151,6.327-31.414,2.981-34.017C53.8,153.3,49.814,152.375,46.286,151.789Z" transform="translate(4.864 39.556)" fill="#eed7ba"/>
      <path id="Path_21711" data-name="Path 21711" d="M49.523,108.6a5.285,5.285,0,0,0,4.088,3.906c8.892,2.083,40.631,8.579,42.661,2.135,2.382-7.577-26.336-11.717-34.278-11.977C55.381,102.481,48.52,103.8,49.523,108.6Z" transform="translate(8.982 24.748)" fill="#e8ceb1"/>
      <path id="Path_21712" data-name="Path 21712" d="M55.82,103.717l25.555,5.494L72.562,93.589l7.29-4.869S100.46,115.668,95.9,120.85s-33.965.221-33.965.221Z" transform="translate(10.913 20.544)" fill="#009f8b"/>
      <path id="Path_21713" data-name="Path 21713" d="M47.12,103.907l10.936,4.908,1.081-7.017a7.019,7.019,0,0,0,1.015.547,7.954,7.954,0,0,0,7.434-.612,4.127,4.127,0,0,0,1.6-1.953,16.6,16.6,0,0,0,1.068-5.65,4.165,4.165,0,0,0,0-.573,62.868,62.868,0,0,0-.963-11.717h.091L69.3,81.7s-1.849-1.185-4.817-2.734a5.728,5.728,0,0,0-3.671-1.041c-3.046,0-2.994.677-4.387,1.041s-2.955,2.07-5.7,4.192c-5.012,3.906-1.94,11.456-1.94,11.456h-.143l.13.169Z" transform="translate(8.287 17.281)" fill="#eed7ba"/>
      <path id="Path_21714" data-name="Path 21714" d="M73.932,152.121s11.391,42.1,11.847,55.042-3.723,66.55-3.723,66.55h-8.4s-4.934-55.9-5.637-60.991-10.636-25.907-10.636-25.907L48.1,275.341s-7.811.469-8.1.117S28.94,155.506,41.424,151.34" transform="translate(4.752 39.445)" fill="#505050"/>
      <path id="Path_21715" data-name="Path 21715" d="M44.2,172.431h2.838c8.5.065,17.21.794,25.347-1.666a2.421,2.421,0,0,0,1.224-.677,1.875,1.875,0,0,0,.391-1.3c-1.419-15.219-.495-29.5-2.252-43.677-.586-4.739.156-16.3-9.972-23.628l-1.068-.273a30.608,30.608,0,0,1-3.58-1.3A27.339,27.339,0,0,1,50.733,96c-4.96,2.343-9.66,5.819-11.9,10.818a20.478,20.478,0,0,0-1.614,7.16c-.078,1.3-.091,2.487-.065,3.736-.273,2.161-.456,4.283-.56,6.379a18.568,18.568,0,0,1-.078,2.083c-.169,6.314-.443,12.615-.417,18.942,0,6.652.625,13.018,1.081,19.593.1,1.627.286,3.593.351,5.207,0,.625-.078,2.252.846,2.317S43.248,172.392,44.2,172.431Zm21.077-65.092ZM66.681,111.909Z" transform="translate(4.96 22.741)" fill="url(#linear-gradient)"/>
      <path id="Path_21716" data-name="Path 21716" d="M42.148,103.044a5.285,5.285,0,0,0-3.593,4.4c-1.3,9.035-5.3,39.381,1.3,40.852,7.811,1.744,9.66-25.4,9.23-33.327C48.735,108.368,46.847,101.638,42.148,103.044Z" transform="translate(4.979 24.811)" fill="#eed7ba"/>
      <path id="Path_21717" data-name="Path 21717" d="M72.811,249.048a40.424,40.424,0,0,0,7.1,7.2c4.96,4.1,6.34,3.307,6.392,4.765s-21.3-.664-21.3-.664l.365-11.938S72.811,248.748,72.811,249.048Z" transform="translate(13.684 68.746)" fill="#202020"/>
      <path id="Path_21718" data-name="Path 21718" d="M46.436,249.307a40.069,40.069,0,0,0,7.3,6.965c5.09,3.906,6.444,3.124,6.509,4.569s-21.3,0-21.3,0V248.89S46.436,249.033,46.436,249.307Z" transform="translate(5.82 68.89)" fill="#202020"/>
      <path id="Path_21719" data-name="Path 21719" d="M46.69,242.05" transform="translate(8.157 66.826)" fill="#131214"/>
      <path id="Path_21720" data-name="Path 21720" d="M65,151.94" transform="translate(13.684 39.627)" fill="#eed7ba"/>
      <path id="Path_21721" data-name="Path 21721" d="M65,151.94" transform="translate(13.684 39.627)" fill="#eed7ba"/>
      <path id="Path_21722" data-name="Path 21722" d="M38.785,134.073a5.207,5.207,0,0,1,4.778.638c6.991,4.661,32.143,21.754,31.479,25.373-.768,4.2-38.17-18.773-38.235-21.051C36.767,137.327,36.246,135.14,38.785,134.073Z" transform="translate(5.152 34.139)" fill="#eed7ba"/>
      <path id="Path_21723" data-name="Path 21723" d="M50.514,121.823l-2.4,21.6,17.705,15.036-6.015,7.564s-20.83-11.352-23.433-17.367-3.645-47.387,7.564-46.541C54.3,102.894,50.514,121.823,50.514,121.823Z" transform="translate(4.528 24.583)" fill="#009f8b"/>
      <path id="Path_21724" data-name="Path 21724" d="M65.328,151.82s3.307.247,3.632,2.083,3.971,1.054,4.049,2.473-3.085,5.52-6.431,3.046a10.922,10.922,0,0,1-4.088-6.184Z" transform="translate(12.926 39.59)" fill="#eed7ba"/>
      <path id="Path_21725" data-name="Path 21725" d="M72.175,77.31A6.73,6.73,0,0,0,70.6,73.4c-1.953-2.1-4.426-2.057-6.965-1.172a36.83,36.83,0,0,1-5.025,1.406c-3.333.638-7.329,0-10.037,2.526a6.392,6.392,0,0,0-1.406,1.888,10.571,10.571,0,0,0-.586,5.507c.312,3.645.82,7.264,1.224,10.9l.664,5.78,1.784-1.718,3.281-3.085a4.023,4.023,0,0,0,1.107-1.9,11.4,11.4,0,0,0,.391-2.33,10.193,10.193,0,0,1-.169-3.827c.338-1.12,1.705-2.083,2.669-1.015.638.729,1.159,1.536,1.718,2.317s.937,1.536,1.771,1.653c1.705.182,1.3-2.682,1.2-3.632-.234-3.4,5.429-2.838,7.394-3.8A5.416,5.416,0,0,0,72.175,77.31Z" transform="translate(8.084 15.394)" fill="#1d262d"/>
      <path id="Path_21726" data-name="Path 21726" d="M281.4,265.526c0-2.343-1.692-4.387-1.419-6.744.534-4.609,6.08-5.416,8.918-8.084,3.619-3.385-.729-6.978-2.382-10.076-3.177-5.988,2.864-10.48,5.689-15.023,1.406-2.239,1.849-4.908.169-7.1a16.351,16.351,0,0,0-3.554-2.9c-3.1-2.291-3.606-6.054-.625-8.735,4.7-4.2,11.274-7.447,10.688-14.88a3.684,3.684,0,0,0-.625-1.992,2.929,2.929,0,0,0-2.252-1.015c-4.179-.13-9.009,4.049-13.018,1.12-5.207-3.8-15.336-15.062-22.131-5.975-2.6,3.424-1.862,8.032.247,11.482,2.343,3.906,4.517,7.967,4.374,12.628s-.963,6.6-4.622,9.269c-3.124,2.278-6.861,2.786-7.733,7.056-1.484,7.316,13.018,4.739,12.211,11.717-.469,4.036-2.981,6.678-4.27,10.337a3.32,3.32,0,0,0-.2,1.966,4.179,4.179,0,0,0,1.875,2.1c4.491,3.163,12.159,6.913,11.4,13.552" transform="translate(70.436 48.297)" fill="#f1f2f2"/>
      <path id="Path_21727" data-name="Path 21727" d="M288.714,193.45c-6.757-.768-11.573,4.752-13.11,6.8a21.936,21.936,0,0,0-3.7-10.35.3.3,0,0,0-.39-.065.286.286,0,0,0,0,.391,21.585,21.585,0,0,1,3.658,10.688v.078a.273.273,0,0,0,.091.378h0c.534,5.754-.2,12.146-.885,18.1-.273,2.382-.534,4.635-.7,6.8V227a44.146,44.146,0,0,0-13.6-5.051.271.271,0,1,0-.091.534,43.144,43.144,0,0,1,13.526,5.129,133.973,133.973,0,0,0,.221,16.208c-1.51-.456-7.46-2.031-11.118-.143a.273.273,0,0,0-.117.365.286.286,0,0,0,.378.117c3.619-1.875,9.894-.065,10.9.247.391,5.6.9,9.777.911,9.855a.273.273,0,0,0,.273.234h0a.273.273,0,0,0,.247-.3s-.208-1.627-.443-4.114a.261.261,0,0,0,.2-.13c0-.065,3.554-6.327,8.944-5.3a.26.26,0,0,0,.312-.208.286.286,0,0,0-.208-.326c-5.012-.976-8.462,3.906-9.308,5.207a148.232,148.232,0,0,1-.586-23.056c.156-1.823.364-3.736.6-5.715.768-.456,6.8-3.814,11.886-2.1a.27.27,0,1,0,.182-.508c-4.895-1.666-10.415,1.055-12,1.94v-.4c.69-6.054,1.432-12.589.846-18.46.885-1.3,5.832-7.811,13.018-7.069a.26.26,0,0,0,.3-.234A.273.273,0,0,0,288.714,193.45Z" transform="translate(72.47 51.05)" fill="#949494"/>
      <path id="Path_21728" data-name="Path 21728" d="M266.37,261.578h15.44a1.914,1.914,0,0,0,1.914-1.757l1.966-20.231h-23.2l1.966,20.231a1.9,1.9,0,0,0,1.914,1.758Z" transform="translate(73.295 66.083)" fill="#505050"/>
      <rect id="Rectangle_10842" data-name="Rectangle 10842" width="26.024" height="3.932" rx="0.64" transform="translate(360.39 309.605) rotate(180)" fill="#777"/>
      <path id="Path_21729" data-name="Path 21729" d="M274.125,91.393V226.225a9.543,9.543,0,0,1-9.53,9.556H113.113a9.556,9.556,0,0,1-9.543-9.556V91.393a9.556,9.556,0,0,1,9.543-9.543H264.6a9.543,9.543,0,0,1,9.529,9.543Z" transform="translate(25.326 18.47)" fill="#e7e7e7"/>
      <path id="Path_21730" data-name="Path 21730" d="M274.122,91.393v7.46H103.58v-7.46a9.556,9.556,0,0,1,9.543-9.543h151.47a9.543,9.543,0,0,1,9.529,9.543Z" transform="translate(25.329 18.47)" fill="#505050"/>
      <circle id="Ellipse_1732" data-name="Ellipse 1732" cx="43.482" cy="43.482" r="43.482" transform="translate(170.698 133.804)" fill="#fff"/>
      <path id="Path_21731" data-name="Path 21731" d="M172.339,121.39a14.138,14.138,0,0,0-14.1,14.125v14.8h28.224v-14.8A14.151,14.151,0,0,0,172.339,121.39Zm9.425,24.227H162.94v-10.1a9.412,9.412,0,1,1,18.825,0Z" transform="translate(41.828 30.405)" fill="#1d262d"/>
      <rect id="Rectangle_10843" data-name="Rectangle 10843" width="12.016" height="13.318" transform="translate(208.022 180.306)" fill="#1d262d"/>
      <path id="Path_21732" data-name="Path 21732" d="M191.929,135.25H155.62a2.213,2.213,0,0,0-2.2,2.213v28.51a2.213,2.213,0,0,0,2.2,2.213h36.308a2.226,2.226,0,0,0,2.226-2.213V137.528a2.226,2.226,0,0,0-2.226-2.278Zm-14.8,19.124a3.392,3.392,0,1,1-5.077-2.929V149a1.666,1.666,0,1,1,3.333,0v2.447a3.4,3.4,0,0,1,1.783,2.929Z" transform="translate(40.373 34.589)" fill="#009f8b"/>
      <path id="Path_21733" data-name="Path 21733" d="M194.181,137.513v28.51a2.2,2.2,0,0,1-2.2,2.2H155.633a2.213,2.213,0,0,1-2.213-2.2V164.6c8.644.117,21.52-.26,28.484-3.085,9.972-4.049,9.959-20.83,9.608-26.219h.417a2.213,2.213,0,0,1,2.252,2.213Z" transform="translate(40.373 34.604)" fill="#06864a" opacity="0.3"/>
      <path id="Path_21734" data-name="Path 21734" d="M206,89.356A2.369,2.369,0,1,1,203.642,87,2.369,2.369,0,0,1,206,89.356Z" transform="translate(54.813 20.025)" fill="#fff"/>
      <path id="Path_21735" data-name="Path 21735" d="M215.819,89.356A2.369,2.369,0,1,1,213.462,87a2.369,2.369,0,0,1,2.356,2.356Z" transform="translate(57.777 20.025)" fill="#fff"/>
      <path id="Path_21736" data-name="Path 21736" d="M225.649,89.356A2.369,2.369,0,1,1,223.279,87a2.369,2.369,0,0,1,2.369,2.356Z" transform="translate(60.744 20.025)" fill="#fff"/>
      <text id="_" data-name="?" transform="translate(328.01 194.509) rotate(25.64)" fill="#e7e7e7" font-size="51" font-family="ArialMT, Arial"><tspan x="0" y="0">?</tspan></text>
      <text id="_2" data-name="?" transform="translate(225.844 61.436)" fill="#e7e7e7" font-size="29" font-family="ArialMT, Arial"><tspan x="0" y="0">?</tspan></text>
      <text id="_3" data-name="?" transform="matrix(0.848, -0.529, 0.529, 0.848, 196.831, 88.392)" fill="#e7e7e7" font-size="25" font-family="ArialMT, Arial"><tspan x="0" y="0">?</tspan></text>
      <path id="Path_21737" data-name="Path 21737" d="M119.911,28.71c-23.056,0-41.737,9.243-41.737,20.647A13.1,13.1,0,0,0,82.587,58.6c-4.309,3.906-13.3,12.107-13.357,12.107l21.936-6.379c7.486,3.528,17.6,5.689,28.745,5.689,23.043,0,41.724-9.243,41.724-20.66S142.953,28.71,119.911,28.71Z" transform="translate(14.96 2.43)" fill="#505050"/>
      <text id="_4" data-name="?" transform="translate(127.672 61.533)" fill="#fff" font-size="32" font-family="ArialMT, Arial"><tspan x="0" y="0">?</tspan></text>
    </g>
    <line id="Line_329" data-name="Line 329" x2="403" transform="translate(0.317 330.734)" fill="#d4e6fc" stroke="#949494" stroke-linecap="round" stroke-linejoin="round" stroke-width="0.62"/>
  </g>
</svg>
