<svg xmlns="http://www.w3.org/2000/svg" viewBox="0 0 403.21 234.39"><defs><style>.cls-1{fill:#1dbf73;}</style></defs><g id="Layer_2" data-name="Layer 2"><g id="Layer_1-2" data-name="Layer 1"><circle class="cls-1" cx="110.79" cy="216.48" r="17.92"/><circle class="cls-1" cx="146.62" cy="216.48" r="17.92"/><circle class="cls-1" cx="201.51" cy="75.62" r="17.92"/><path class="cls-1" d="M231.89,159.83V102.46c-40.09-4.23-77.15,11.45-73.78,57.37h-2.36v31.43h81V159.83Zm-23.33,0H186.71c-5-13.55,7.61-28.38,21.85-25.44Z"/><path class="cls-1" d="M104.63,159.83H94.21L97.42,43.91H63.65V190.07c-11-.5-34.67,4.24-32.19-14.19.69-7.82,2.06-23.83,2.74-31.59H.43c1.43,27.1-10,75.65,31.16,77.21,25.88.1,58.44,5,61.74-30.24h11.3Z"/><polygon class="cls-1" points="142.84 159.78 150.27 111.05 113.14 111.05 113.14 159.83 107.14 159.83 107.14 191.26 150.27 191.26 150.27 159.83 142.84 159.83 142.84 159.78"/><path class="cls-1" d="M297.86,210.69l19.43,19.43h0l19.42-19.43V186.76H297.86Z"/><path class="cls-1" d="M403.19,144.86a31.46,31.46,0,0,0-30.73-32.21H287.65c-2.68-7.63,3.7-15.91,11.79-15.72h71.07L382,65.49H336.71V46.07L317.29,26.64h0L297.86,46.07V65.49h.57a50.35,50.35,0,0,0-50.61,50.75l-.13,27.83H372.46v15.76H104.63v31.43H372.46a31.43,31.43,0,0,0,30.73-30.61C403.16,160.49,403.22,145.58,403.19,144.86Z"/><polygon class="cls-1" points="240.69 23.41 240.69 48.3 335.33 12.15 330.44 0 240.69 23.41"/><path class="cls-1" d="M133.42,48.3a16.86,16.86,0,1,0,16.85,16.85A16.85,16.85,0,0,0,133.42,48.3Zm0,24.24a7.39,7.39,0,1,1,7.38-7.39A7.39,7.39,0,0,1,133.42,72.54Z"/><polygon class="cls-1" points="179.93 198.56 183.04 217.23 265.7 213.23 283.84 228.78 283.84 198.56 179.93 198.56"/></g></g></svg>