<?xml version="1.0" standalone="no"?><svg xmlns="http://www.w3.org/2000/svg" viewBox="0 0 1440 320"><path fill="#00cb89" fill-opacity="1" d="M0,160L40,149.3C80,139,160,117,240,96C320,75,400,53,480,80C560,107,640,181,720,213.3C800,245,880,235,960,218.7C1040,203,1120,181,1200,176C1280,171,1360,181,1400,186.7L1440,192L1440,320L1400,320C1360,320,1280,320,1200,320C1120,320,1040,320,960,320C880,320,800,320,720,320C640,320,560,320,480,320C400,320,320,320,240,320C160,320,80,320,40,320L0,320Z"></path></svg>