<?xml version="1.0" standalone="no"?><svg xmlns="http://www.w3.org/2000/svg" viewBox="0 0 1440 320"><path fill="#1dbf73" fill-opacity="1" d="M0,256L24,218.7C48,181,96,107,144,85.3C192,64,240,96,288,122.7C336,149,384,171,432,186.7C480,203,528,213,576,197.3C624,181,672,139,720,122.7C768,107,816,117,864,122.7C912,128,960,128,1008,144C1056,160,1104,192,1152,176C1200,160,1248,96,1296,90.7C1344,85,1392,139,1416,165.3L1440,192L1440,320L1416,320C1392,320,1344,320,1296,320C1248,320,1200,320,1152,320C1104,320,1056,320,1008,320C960,320,912,320,864,320C816,320,768,320,720,320C672,320,624,320,576,320C528,320,480,320,432,320C384,320,336,320,288,320C240,320,192,320,144,320C96,320,48,320,24,320L0,320Z"></path></svg>