<?xml version="1.0" standalone="no"?><svg xmlns="http://www.w3.org/2000/svg" viewBox="0 0 1440 320"><path fill="#00cba9" fill-opacity="1" d="M0,320L24,277.3C48,235,96,149,144,128C192,107,240,149,288,181.3C336,213,384,235,432,245.3C480,256,528,256,576,245.3C624,235,672,213,720,202.7C768,192,816,192,864,170.7C912,149,960,107,1008,106.7C1056,107,1104,149,1152,165.3C1200,181,1248,171,1296,160C1344,149,1392,139,1416,133.3L1440,128L1440,320L1416,320C1392,320,1344,320,1296,320C1248,320,1200,320,1152,320C1104,320,1056,320,1008,320C960,320,912,320,864,320C816,320,768,320,720,320C672,320,624,320,576,320C528,320,480,320,432,320C384,320,336,320,288,320C240,320,192,320,144,320C96,320,48,320,24,320L0,320Z"></path></svg>